<svg xmlns="http://www.w3.org/2000/svg" viewBox="0 0 513 513"><defs><style>.a{fill:#000;}.b{fill:none;stroke:#000;stroke-miterlimit:10;stroke-width:1px;}.c{fill:#fff;}@media (prefers-color-scheme:dark){.a,.b{fill:#fff;}.c{fill:#000}}</style></defs><title>alex.net.co - favicon</title><rect class="a" x="0.5" y="0.5" width="512" height="512" rx="255"/><rect class="b" x="0.5" y="0.5" width="512" height="512" rx="255"/><path class="c" d="M116.39,160.75A42.54,42.54,0,0,1,131.28,163a24.07,24.07,0,0,1,9.76,6.46,24.42,24.42,0,0,1,5.28,9.92,48,48,0,0,1,1.58,12.68v51.19l-5.28.86q-3.39.56-7.64,1c-2.83.31-5.91.6-9.21.86s-6.59.4-9.85.4A53.73,53.73,0,0,1,103.16,245a28.48,28.48,0,0,1-10.08-4.49,20.56,20.56,0,0,1-6.61-8.11,28.31,28.31,0,0,1-2.36-12.13,23.29,23.29,0,0,1,2.75-11.65,22,22,0,0,1,7.48-7.88,34.91,34.91,0,0,1,11-4.41,60.42,60.42,0,0,1,13.23-1.41,45.25,45.25,0,0,1,4.57.23c1.57.16,3.07.37,4.49.63l3.7.71c1,.21,1.78.37,2.2.47v-4.09a32.62,32.62,0,0,0-.79-7.17,16.42,16.42,0,0,0-2.83-6.3,14.45,14.45,0,0,0-5.59-4.41,22,22,0,0,0-9.22-1.65,69.33,69.33,0,0,0-12.67,1,44.56,44.56,0,0,0-8.12,2.13l-1.73-12.13a45.31,45.31,0,0,1,9.45-2.44A81.4,81.4,0,0,1,116.39,160.75Zm1.26,73.39q5.2,0,9.22-.23a40.28,40.28,0,0,0,6.69-.87V208.63a18.6,18.6,0,0,0-5.12-1.34,59.69,59.69,0,0,0-15.59-.08,21.65,21.65,0,0,0-6.77,2,14.49,14.49,0,0,0-5.12,4.09,10.76,10.76,0,0,0-2,6.86q0,7.88,5,10.94T117.65,234.14Z" transform="translate(0.5 0.5)"/><path class="c" d="M196.72,246.27q-13.54-.32-19.22-5.83t-5.67-17.16V125l14.65-2.52v98.43a23.78,23.78,0,0,0,.63,6,8.22,8.22,0,0,0,2,3.78,8.77,8.77,0,0,0,3.78,2.12,38.23,38.23,0,0,0,5.83,1.19Z" transform="translate(0.5 0.5)"/><path class="c" d="M210.58,203.9a52.31,52.31,0,0,1,3.15-19,39.62,39.62,0,0,1,8.35-13.46,33.78,33.78,0,0,1,12-8,37.35,37.35,0,0,1,13.87-2.68q16.53,0,25.35,10.31t8.82,31.43v2.44a23.27,23.27,0,0,1-.15,2.75H225.85q.94,12.76,7.41,19.38t20.16,6.61a53.35,53.35,0,0,0,13-1.34,46.78,46.78,0,0,0,8-2.6l2,12.29a43.8,43.8,0,0,1-9.37,3,66.59,66.59,0,0,1-15.2,1.58,48.2,48.2,0,0,1-18.5-3.23,34.49,34.49,0,0,1-12.84-8.9A36.34,36.34,0,0,1,213,221,56.87,56.87,0,0,1,210.58,203.9Zm56.22-8q.17-9.92-5-16.3t-14.09-6.38a19.35,19.35,0,0,0-8.9,2,20.94,20.94,0,0,0-6.54,5.12,23.68,23.68,0,0,0-4.17,7.24,35.45,35.45,0,0,0-2,8.35Z" transform="translate(0.5 0.5)"/><path class="c" d="M352.17,244.7c-1.16-2.31-2.57-4.89-4.25-7.72s-3.52-5.75-5.52-8.74-4-6-6.14-8.9-4.15-5.72-6.14-8.35c-2,2.63-4,5.43-6.14,8.43s-4.12,6-6.07,9-3.75,5.91-5.43,8.75-3.1,5.35-4.25,7.56H293.11a198.42,198.42,0,0,1,13.15-21.82q7.64-11.1,15.2-21.18l-27.09-38.9H310.9l19.53,28.66,19.69-28.66h15.59l-26.46,37.95q7.56,10.25,15.52,21.66a188.39,188.39,0,0,1,13.47,22.29Z" transform="translate(0.5 0.5)"/><path class="c" d="M70,356a9.38,9.38,0,0,1-2.48,6.48,8.64,8.64,0,0,1-6.76,2.76A8.61,8.61,0,0,1,54,362.51a9.69,9.69,0,0,1,0-12.95,8.61,8.61,0,0,1,6.75-2.76,8.64,8.64,0,0,1,6.76,2.76A9.37,9.37,0,0,1,70,356Z" transform="translate(0.5 0.5)"/><path class="c" d="M88.7,293.88q4.41-1.1,11.71-2.34a101,101,0,0,1,16.81-1.24,36.3,36.3,0,0,1,14.2,2.41,22.3,22.3,0,0,1,9,6.75,26.22,26.22,0,0,1,4.75,10.41,60.29,60.29,0,0,1,1.38,13.37v40.24H133.76V326a61.91,61.91,0,0,0-.89-11.3,19.15,19.15,0,0,0-3-7.58,11.68,11.68,0,0,0-5.51-4.2,24.3,24.3,0,0,0-8.54-1.31c-1.38,0-2.81,0-4.28.14s-2.87.2-4.2.34-2.53.3-3.58.48l-2.28.42v60.5H88.7Z" transform="translate(0.5 0.5)"/><path class="c" d="M163.8,327.78a45.64,45.64,0,0,1,2.76-16.6,34.87,34.87,0,0,1,7.3-11.79,29.76,29.76,0,0,1,10.48-7A32.55,32.55,0,0,1,196.47,290q14.46,0,22.18,9t7.72,27.49v2.14a19.81,19.81,0,0,1-.14,2.41H177.17q.83,11.16,6.48,17t17.64,5.79a47.08,47.08,0,0,0,11.37-1.17,40.26,40.26,0,0,0,7-2.28l1.79,10.75a38,38,0,0,1-8.2,2.62,58.26,58.26,0,0,1-13.3,1.38,42,42,0,0,1-16.19-2.83,30.1,30.1,0,0,1-11.23-7.78,31.65,31.65,0,0,1-6.55-11.78A49.66,49.66,0,0,1,163.8,327.78Zm49.2-7q.13-8.67-4.34-14.26c-3-3.72-7.1-5.58-12.33-5.58a16.89,16.89,0,0,0-7.79,1.72,18.34,18.34,0,0,0-5.72,4.48,20.61,20.61,0,0,0-3.65,6.34,31.12,31.12,0,0,0-1.72,7.3Z" transform="translate(0.5 0.5)"/><path class="c" d="M256.83,291.81H284v10.75H256.83v33.08a40,40,0,0,0,.82,8.89,13.49,13.49,0,0,0,2.48,5.51,9.09,9.09,0,0,0,4.14,2.83,18.34,18.34,0,0,0,5.79.82,27,27,0,0,0,9.3-1.31q3.51-1.31,4.89-1.86l2.48,10.61a47.52,47.52,0,0,1-6.75,2.42A38.6,38.6,0,0,1,269,365a33.34,33.34,0,0,1-12.05-1.86,17.57,17.57,0,0,1-7.65-5.58,22.31,22.31,0,0,1-4.07-9.16A60.54,60.54,0,0,1,244,335.78V271.83l12.82-2.2Z" transform="translate(0.5 0.5)"/><path class="c" d="M316.91,356a9.38,9.38,0,0,1-2.48,6.48,9.65,9.65,0,0,1-13.51,0,9.69,9.69,0,0,1,0-12.95,9.65,9.65,0,0,1,13.51,0A9.37,9.37,0,0,1,316.91,356Z" transform="translate(0.5 0.5)"/><path class="c" d="M366.8,365.13a39,39,0,0,1-15.23-2.76,30.62,30.62,0,0,1-11-7.71,32.15,32.15,0,0,1-6.68-11.79,48.8,48.8,0,0,1-2.21-15.09,45.6,45.6,0,0,1,2.42-15.16,35.76,35.76,0,0,1,6.82-11.92,30.5,30.5,0,0,1,10.82-7.85A34.84,34.84,0,0,1,366,290a57.26,57.26,0,0,1,9.65.83,44,44,0,0,1,9.23,2.62L382,304.35a31.25,31.25,0,0,0-6.69-2.2,37.83,37.83,0,0,0-8.06-.83q-10.75,0-16.47,6.76T345,327.78a40.51,40.51,0,0,0,1.31,10.61,21.69,21.69,0,0,0,4.14,8.27A18.37,18.37,0,0,0,357.7,352a27.64,27.64,0,0,0,10.75,1.86,40.83,40.83,0,0,0,9.23-1,34.5,34.5,0,0,0,6.48-2.07L386,361.55a13.58,13.58,0,0,1-3.17,1.31,44.63,44.63,0,0,1-4.68,1.1q-2.62.48-5.58.83A52,52,0,0,1,366.8,365.13Z" transform="translate(0.5 0.5)"/><path class="c" d="M461.2,327.65a45.41,45.41,0,0,1-2.48,15.43,35,35,0,0,1-7,11.85,30.64,30.64,0,0,1-10.68,7.65,35.25,35.25,0,0,1-27,0,30.46,30.46,0,0,1-10.68-7.65,35,35,0,0,1-7-11.85,49.05,49.05,0,0,1,0-30.8,35.07,35.07,0,0,1,7-11.92,30.46,30.46,0,0,1,10.68-7.65,35.25,35.25,0,0,1,27,0,30.64,30.64,0,0,1,10.68,7.65,35.07,35.07,0,0,1,7,11.92A45.59,45.59,0,0,1,461.2,327.65Zm-13.37,0q0-12.13-5.44-19.23a19,19,0,0,0-29.63,0q-5.44,7.09-5.44,19.23t5.44,19.22a19,19,0,0,0,29.63,0Q447.84,339.78,447.83,327.65Z" transform="translate(0.5 0.5)"/></svg>