<svg id="logo" xmlns="http://www.w3.org/2000/svg" viewBox="0 0 512.94 512.94"><defs><style>.cls-1{fill:#000;stroke:#000;stroke-miterlimit:10;}.cls-2{fill:#000}.cls-3{fill:#fff}.cls-4{fill:#fff}
@media (prefers-color-scheme: dark){.cls-1{stroke:#fff}.cls-2{fill:#fff}.cls-3,.cls-4{fill:#000}}</style></defs><title>alex.net.co</title><rect class="cls-1" x="0.47" y="0.47" width="512" height="512" rx="150"/><rect class="cls-2" x="0.47" y="0.47" width="512" height="512" rx="150"/><path class="cls-3" d="M83.85,155.6A44.85,44.85,0,0,1,99.54,158a25.3,25.3,0,0,1,10.29,6.81,25.85,25.85,0,0,1,5.57,10.45,50.83,50.83,0,0,1,1.66,13.37v54l-5.57.91q-3.57.58-8,1.08c-3,.33-6.22.64-9.71.92s-7,.41-10.37.41a57.12,57.12,0,0,1-13.45-1.49,30.29,30.29,0,0,1-10.63-4.73,21.75,21.75,0,0,1-7-8.55,30,30,0,0,1-2.49-12.79,24.57,24.57,0,0,1,2.91-12.28,23.06,23.06,0,0,1,7.88-8.3,36.74,36.74,0,0,1,11.62-4.65,63.19,63.19,0,0,1,14-1.49,47.15,47.15,0,0,1,4.81.25c1.66.16,3.24.38,4.73.66l3.9.75c1.11.22,1.88.38,2.33.49v-4.31a35,35,0,0,0-.83-7.56,17.38,17.38,0,0,0-3-6.64,15.15,15.15,0,0,0-5.89-4.64,23,23,0,0,0-9.71-1.75A72.89,72.89,0,0,0,69.16,170a47.12,47.12,0,0,0-8.55,2.24l-1.82-12.78a47.88,47.88,0,0,1,10-2.57A86,86,0,0,1,83.85,155.6ZM85.18,233q5.47,0,9.71-.25a42,42,0,0,0,7.06-.91V206.07a20.1,20.1,0,0,0-5.4-1.41,59.58,59.58,0,0,0-9-.58,58.72,58.72,0,0,0-7.39.49A23,23,0,0,0,73,206.65a15.25,15.25,0,0,0-5.4,4.32,11.37,11.37,0,0,0-2.15,7.22q0,8.3,5.31,11.53T85.18,233Z" transform="translate(0.47 0.47)"/><path class="cls-3" d="M168.52,245.74q-14.28-.33-20.26-6.14t-6-18.09V117.92l15.44-2.66V219a25.21,25.21,0,0,0,.66,6.31,8.6,8.6,0,0,0,2.16,4,9.21,9.21,0,0,0,4,2.24,41.91,41.91,0,0,0,6.14,1.25Z" transform="translate(0.47 0.47)"/><path class="cls-3" d="M183.12,201.09a55.23,55.23,0,0,1,3.32-20,42,42,0,0,1,8.8-14.19,35.87,35.87,0,0,1,12.62-8.47,39.45,39.45,0,0,1,14.61-2.82q17.43,0,26.73,10.88t9.29,33.11v2.58a25.72,25.72,0,0,1-.16,2.9h-59.1q1,13.45,7.8,20.42t21.25,7A56.64,56.64,0,0,0,242,231.05a49.18,49.18,0,0,0,8.39-2.74l2.16,12.95a46.06,46.06,0,0,1-9.88,3.16,70.67,70.67,0,0,1-16,1.66,50.8,50.8,0,0,1-19.51-3.41,36.2,36.2,0,0,1-13.53-9.38,38.14,38.14,0,0,1-7.88-14.19A59.88,59.88,0,0,1,183.12,201.09Zm59.27-8.47q.17-10.45-5.23-17.18t-14.86-6.72a20.4,20.4,0,0,0-9.38,2.07,22.14,22.14,0,0,0-6.89,5.4,24.85,24.85,0,0,0-4.4,7.63,37.66,37.66,0,0,0-2.07,8.8Z" transform="translate(0.47 0.47)"/><path class="cls-3" d="M332.36,244.08q-1.83-3.65-4.48-8.13t-5.81-9.21q-3.15-4.74-6.47-9.38t-6.48-8.8q-3.15,4.16-6.47,8.88t-6.39,9.46q-3.08,4.74-5.73,9.22t-4.48,8H270.11a210.75,210.75,0,0,1,13.86-23q8.05-11.7,16-22.33l-28.55-41h17.43L309.45,188l20.76-30.21h16.43l-27.89,40q8,10.78,16.35,22.82a199.89,199.89,0,0,1,14.2,23.49Z" transform="translate(0.47 0.47)"/><path class="cls-3" d="M59.91,361.44a9.87,9.87,0,0,1-2.62,6.83,9.12,9.12,0,0,1-7.12,2.9,9.1,9.1,0,0,1-7.11-2.9,10.21,10.21,0,0,1,0-13.66,9.06,9.06,0,0,1,7.11-2.9,9.08,9.08,0,0,1,7.12,2.9A9.85,9.85,0,0,1,59.91,361.44Z" transform="translate(0.47 0.47)"/><path class="cls-3" d="M79.66,295.93q4.65-1.17,12.35-2.47a106.94,106.94,0,0,1,17.72-1.31q9,0,15,2.54a23.43,23.43,0,0,1,9.51,7.12,27.48,27.48,0,0,1,5,11,64.15,64.15,0,0,1,1.45,14.09v42.41H127.16V329.77a64.34,64.34,0,0,0-1-11.91,20.24,20.24,0,0,0-3.12-8,12.37,12.37,0,0,0-5.81-4.43,25.5,25.5,0,0,0-9-1.38c-1.46,0-3,.05-4.51.15s-3,.21-4.43.36-2.66.32-3.77.51-1.92.34-2.4.43v63.77H79.66Z" transform="translate(0.47 0.47)"/><path class="cls-3" d="M158.82,331.66a48.14,48.14,0,0,1,2.91-17.5,36.51,36.51,0,0,1,7.7-12.42,31.24,31.24,0,0,1,11-7.41,34.37,34.37,0,0,1,12.78-2.47q15.25,0,23.39,9.51t8.13,29v2.25a22.14,22.14,0,0,1-.14,2.55H172.91q.87,11.76,6.83,17.86t18.59,6.1a49.78,49.78,0,0,0,12-1.23,42.25,42.25,0,0,0,7.33-2.4l1.89,11.33a39.92,39.92,0,0,1-8.64,2.76,61.37,61.37,0,0,1-14,1.46,44.58,44.58,0,0,1-17.07-3A31.78,31.78,0,0,1,168,359.84a33.38,33.38,0,0,1-6.9-12.42A52.19,52.19,0,0,1,158.82,331.66Zm51.86-7.41q.15-9.15-4.58-15t-13-5.89a17.78,17.78,0,0,0-8.2,1.82,19.29,19.29,0,0,0-6,4.72,21.77,21.77,0,0,0-3.85,6.68,33,33,0,0,0-1.82,7.7Z" transform="translate(0.47 0.47)"/><path class="cls-3" d="M256.87,293.75h28.62v11.33H256.87v34.86a42,42,0,0,0,.87,9.37,14.06,14.06,0,0,0,2.62,5.81,9.42,9.42,0,0,0,4.35,3,19.41,19.41,0,0,0,6.11.87,28.69,28.69,0,0,0,9.8-1.38q3.7-1.38,5.16-2l2.61,11.18a48.86,48.86,0,0,1-7.12,2.54,40.34,40.34,0,0,1-11.62,1.53,35.21,35.21,0,0,1-12.71-2,18.6,18.6,0,0,1-8.06-5.88,23.62,23.62,0,0,1-4.28-9.66,63.25,63.25,0,0,1-1.24-13.29v-67.4l13.51-2.33Z" transform="translate(0.47 0.47)"/><path class="cls-4" d="M320.2,361.44a9.91,9.91,0,0,1-2.61,6.83,10.19,10.19,0,0,1-14.24,0,10.24,10.24,0,0,1,0-13.66,10.19,10.19,0,0,1,14.24,0A9.89,9.89,0,0,1,320.2,361.44Z" transform="translate(0.47 0.47)"/><path class="cls-4" d="M372.78,371a41,41,0,0,1-16-2.91A32.41,32.41,0,0,1,345.11,360a33.65,33.65,0,0,1-7-12.42,51.25,51.25,0,0,1-2.33-15.91,48.25,48.25,0,0,1,2.54-16,37.75,37.75,0,0,1,7.19-12.56,32.07,32.07,0,0,1,11.41-8.28,36.76,36.76,0,0,1,15-3,60.2,60.2,0,0,1,10.17.87,46.63,46.63,0,0,1,9.73,2.76L388.76,307a32.21,32.21,0,0,0-7.05-2.33,39.79,39.79,0,0,0-8.49-.87q-11.34,0-17.36,7.12t-6,20.77a42.66,42.66,0,0,0,1.38,11.19,23,23,0,0,0,4.36,8.71,19.3,19.3,0,0,0,7.62,5.59,29.13,29.13,0,0,0,11.34,2,42.84,42.84,0,0,0,9.73-1,36,36,0,0,0,6.82-2.18L393,367.25a14.5,14.5,0,0,1-3.34,1.38,48.45,48.45,0,0,1-4.94,1.16q-2.76.51-5.88.87A52.7,52.7,0,0,1,372.78,371Z" transform="translate(0.47 0.47)"/><path class="cls-4" d="M472.29,331.52a47.81,47.81,0,0,1-2.62,16.26,37.11,37.11,0,0,1-7.34,12.5,32.25,32.25,0,0,1-11.25,8.06,37.22,37.22,0,0,1-28.47,0,32.38,32.38,0,0,1-11.26-8.06,37.28,37.28,0,0,1-7.34-12.5,51.77,51.77,0,0,1,0-32.46,37.22,37.22,0,0,1,7.34-12.57,32.38,32.38,0,0,1,11.26-8.06,37.22,37.22,0,0,1,28.47,0,32.25,32.25,0,0,1,11.25,8.06,37.05,37.05,0,0,1,7.34,12.57A48,48,0,0,1,472.29,331.52Zm-14.09,0q0-12.78-5.74-20.27a18.65,18.65,0,0,0-15.62-7.48q-9.87,0-15.61,7.48t-5.74,20.27q0,12.78,5.74,20.26t15.61,7.48q9.89,0,15.62-7.48T458.2,331.52Z" transform="translate(0.47 0.47)"/></svg>