<?xml version="1.0" standalone="no"?>
<!DOCTYPE svg PUBLIC "-//W3C//DTD SVG 20010904//EN"
 "http://www.w3.org/TR/2001/REC-SVG-20010904/DTD/svg10.dtd">
<svg version="1.0" xmlns="http://www.w3.org/2000/svg"
 width="700.000000pt" height="700.000000pt" viewBox="0 0 700.000000 700.000000"
 preserveAspectRatio="xMidYMid meet">
<metadata>
Created by potrace 1.11, written by Peter Selinger 2001-2013
</metadata>
<g transform="translate(0.000000,700.000000) scale(0.100000,-0.100000)"
fill="#000000" stroke="none">
<path d="M3200 6989 c-1303 -106 -2444 -939 -2939 -2147 -121 -294 -194 -577
-238 -917 -27 -214 -25 -663 5 -883 157 -1163 851 -2147 1881 -2666 384 -193
748 -301 1211 -358 139 -17 621 -17 760 0 463 57 838 168 1221 363 926 470
1595 1338 1819 2361 58 264 74 430 74 758 0 328 -16 494 -74 758 -272 1243
-1194 2237 -2406 2596 -414 123 -876 170 -1314 135z m-648 -2382 c3 -661 4
-715 21 -740 20 -31 57 -52 110 -61 32 -6 36 -10 32 -29 -2 -12 -9 -49 -15
-81 -5 -33 -12 -61 -14 -63 -2 -3 -43 2 -91 11 -135 23 -200 77 -230 191 -13
51 -15 160 -15 756 l0 697 73 12 c39 6 77 13 82 15 6 2 18 4 27 4 16 1 18 -45
20 -712z m-813 177 c95 -21 167 -67 213 -134 65 -95 68 -124 68 -576 l0 -402
-77 -11 c-42 -6 -143 -17 -223 -23 -352 -28 -528 62 -559 284 -28 204 66 335
280 389 71 18 101 21 204 15 66 -3 135 -9 154 -12 l34 -7 -6 75 c-9 119 -41
178 -122 221 -35 19 -55 22 -155 21 -73 0 -138 -7 -178 -17 -35 -9 -67 -17
-71 -17 -9 0 -32 150 -25 161 4 8 122 35 179 42 79 10 222 6 284 -9z m1762 6
c83 -15 171 -64 223 -121 85 -95 123 -212 128 -400 l3 -104 -382 -3 c-325 -2
-383 -4 -383 -17 0 -34 24 -124 47 -172 27 -59 77 -107 139 -135 98 -43 295
-42 421 2 29 10 53 18 54 17 8 -29 25 -164 20 -169 -19 -21 -167 -50 -282 -55
-206 -9 -346 35 -454 143 -94 93 -142 218 -152 394 -23 409 254 688 618 620z
m835 -147 c48 -71 108 -158 134 -195 l46 -67 134 195 133 194 103 0 c57 0 104
-2 104 -4 0 -3 -79 -118 -175 -255 -96 -138 -175 -253 -175 -256 0 -3 44 -67
98 -143 54 -75 117 -164 139 -197 40 -60 153 -252 153 -260 0 -3 -48 -5 -108
-5 l-107 0 -25 48 c-25 48 -223 346 -260 392 -17 21 -22 23 -30 10 -5 -8 -38
-55 -74 -105 -36 -49 -100 -147 -142 -217 l-77 -128 -98 0 c-55 0 -99 4 -99 8
0 20 152 262 261 415 74 103 117 172 113 180 -4 6 -86 124 -181 260 -95 137
-173 250 -173 253 0 2 49 4 110 4 l109 0 87 -127z m-826 -1483 l0 -150 185 0
185 0 0 -70 0 -70 -182 -2 -183 -3 0 -285 c0 -265 1 -288 20 -325 11 -22 35
-50 54 -62 53 -36 182 -31 282 11 13 6 18 -5 28 -51 7 -32 14 -65 17 -74 3
-12 -11 -21 -58 -37 -122 -40 -278 -38 -363 5 -51 26 -104 85 -128 143 -22 54
-22 63 -25 576 l-3 521 58 10 c32 5 70 11 86 12 l27 1 0 -150z m-675 -147
c108 -34 186 -115 225 -232 22 -66 44 -252 34 -283 -5 -17 -28 -18 -336 -18
l-331 0 6 -54 c7 -71 49 -158 95 -196 88 -72 279 -82 463 -24 13 5 18 -5 23
-48 4 -29 9 -62 12 -74 5 -18 -2 -23 -48 -37 -92 -28 -188 -40 -277 -34 -214
14 -356 110 -421 284 -44 118 -50 283 -14 404 77 260 317 391 569 312z m2244
17 c46 -5 106 -17 132 -25 46 -16 47 -17 39 -48 -5 -18 -14 -51 -20 -74 l-10
-42 -43 15 c-23 9 -78 18 -123 21 -198 13 -311 -83 -334 -284 -23 -201 44
-353 177 -403 67 -25 199 -27 285 -4 33 8 62 13 64 11 12 -12 26 -129 16 -139
-15 -15 -115 -37 -203 -44 -151 -13 -293 33 -387 124 -164 160 -186 497 -46
708 64 96 194 174 314 187 19 2 40 4 45 5 6 1 48 -3 94 -8z m886 -12 c158 -39
282 -179 319 -361 41 -199 -3 -384 -121 -508 -63 -67 -122 -101 -210 -124
-242 -63 -483 81 -549 328 -38 140 -23 313 36 434 96 195 303 286 525 231z
m-4171 -18 c69 -27 132 -85 162 -150 45 -96 49 -137 49 -485 l0 -330 -85 0
-85 0 -5 335 -5 335 -30 60 c-44 87 -88 109 -215 109 -52 0 -116 -3 -142 -7
l-48 -8 0 -415 0 -414 -85 0 -85 0 2 477 3 477 34 8 c94 25 216 37 341 34 112
-2 145 -7 194 -26z m-896 -754 c57 -31 79 -119 45 -177 -40 -67 -140 -77 -197
-20 -27 28 -31 38 -31 87 0 51 3 58 37 90 31 28 45 34 80 34 24 -1 53 -6 66
-14z m3367 -2 c69 -33 85 -137 29 -195 -97 -102 -260 16 -199 144 28 60 103
83 170 51z"/>
<path d="M1491 4151 c-30 -11 -69 -34 -89 -54 -30 -30 -36 -44 -40 -91 -2 -30
-2 -66 2 -80 9 -36 53 -85 95 -103 42 -18 229 -29 315 -19 l56 7 0 169 0 168
-50 11 c-81 17 -227 13 -289 -8z"/>
<path d="M3296 4614 c-93 -29 -176 -137 -199 -261 l-6 -33 280 0 281 0 -7 53
c-9 71 -58 171 -101 203 -70 53 -154 66 -248 38z"/>
<path d="M2609 2874 c-81 -24 -156 -118 -174 -217 l-7 -37 242 0 243 0 -6 54
c-10 102 -75 183 -163 205 -54 14 -78 13 -135 -5z"/>
<path d="M5735 2856 c-95 -44 -152 -135 -164 -263 -19 -196 33 -334 150 -398
147 -80 324 2 376 173 26 87 23 249 -7 327 -28 74 -105 155 -166 173 -64 19
-133 15 -189 -12z"/>
</g>
</svg>
