<?xml version="1.0" standalone="no"?>
<!DOCTYPE svg PUBLIC "-//W3C//DTD SVG 20010904//EN"
 "http://www.w3.org/TR/2001/REC-SVG-20010904/DTD/svg10.dtd">
<svg version="1.0" xmlns="http://www.w3.org/2000/svg"
 width="700.000000pt" height="700.000000pt" viewBox="0 0 700.000000 700.000000"
 preserveAspectRatio="xMidYMid meet">
<metadata>
Created by potrace 1.11, written by Peter Selinger 2001-2013
</metadata>
<g transform="translate(0.000000,700.000000) scale(0.100000,-0.100000)"
fill="#000000" stroke="none">
<path d="M1835 6989 c-384 -40 -781 -205 -1080 -449 -333 -272 -585 -666 -689
-1075 -65 -257 -61 -131 -61 -1960 0 -1852 -4 -1728 70 -1999 191 -696 735
-1240 1431 -1431 271 -74 148 -70 1994 -70 1846 0 1723 -4 1994 70 805 221
1396 911 1491 1741 14 123 15 327 13 1749 -3 1487 -5 1617 -21 1705 -43 233
-100 407 -194 595 -315 631 -928 1054 -1632 1125 -125 12 -3195 12 -3316 -1z
m325 -2308 c0 -500 3 -749 11 -768 17 -47 49 -71 105 -84 61 -14 60 -11 43
-120 -11 -65 -13 -69 -39 -69 -51 0 -145 22 -190 45 -57 29 -83 57 -112 120
l-23 50 -3 766 -2 765 87 16 c49 9 96 16 106 17 16 1 17 -40 17 -738z m-869
175 c37 -8 89 -26 116 -40 65 -32 136 -112 165 -184 22 -56 23 -65 26 -504 2
-247 0 -448 -5 -448 -4 0 -51 -7 -103 -15 -139 -22 -400 -31 -485 -16 -139 24
-241 95 -288 200 -28 62 -36 211 -14 275 48 142 169 220 380 247 85 11 219 3
296 -18 l24 -6 -6 81 c-10 126 -45 188 -132 235 -35 19 -55 22 -160 21 -74 -1
-146 -7 -188 -17 -38 -10 -72 -17 -76 -17 -7 0 -31 125 -31 160 0 24 186 58
325 59 50 0 120 -6 156 -13z m1882 -1 c228 -48 357 -248 357 -555 l0 -100
-400 0 -400 0 0 -32 c1 -123 85 -265 184 -309 99 -43 281 -49 411 -13 111 31
100 36 114 -56 7 -46 9 -86 4 -90 -12 -12 -101 -38 -167 -49 -88 -16 -280 -13
-355 4 -147 35 -274 129 -338 251 -18 34 -42 101 -54 150 -29 120 -23 334 11
434 95 282 346 426 633 365z m915 -220 l140 -205 24 32 c13 18 77 111 142 206
l118 172 109 0 c60 0 109 -2 109 -5 0 -3 -83 -124 -185 -270 -102 -146 -185
-267 -185 -270 0 -4 24 -38 53 -78 156 -212 328 -476 353 -541 5 -14 -7 -16
-108 -16 l-113 0 -34 60 c-81 148 -276 425 -292 415 -19 -12 -159 -218 -236
-346 l-77 -129 -103 0 c-59 0 -103 4 -103 10 0 31 180 312 332 518 l69 93 -93
132 c-50 73 -138 198 -195 280 l-103 147 120 0 119 0 139 -205z m-578 -1490
l0 -155 195 0 195 0 0 -80 0 -80 -196 0 -196 0 4 -297 c3 -295 3 -299 28 -348
36 -71 72 -89 174 -88 57 0 97 7 135 22 30 11 56 20 56 18 9 -11 34 -140 30
-147 -3 -6 -38 -20 -78 -32 -94 -29 -246 -31 -326 -4 -102 35 -170 122 -191
247 -7 42 -10 238 -8 569 l3 505 60 11 c33 7 72 12 88 13 l27 1 0 -155z
m-1915 -145 c131 -19 225 -80 275 -179 50 -100 55 -145 55 -521 l0 -345 -90 0
-90 0 -6 350 c-3 203 -10 363 -16 381 -21 61 -44 95 -84 121 -34 22 -55 27
-124 31 -46 2 -118 1 -159 -3 l-76 -7 -2 -436 -3 -437 -90 0 -90 0 -3 498 -2
497 22 9 c25 9 208 39 273 44 83 7 142 6 210 -3z m1210 -15 c110 -36 196 -130
236 -255 15 -45 23 -103 26 -187 l6 -123 -353 0 -353 0 6 -50 c9 -74 53 -165
100 -205 60 -52 124 -69 247 -69 93 0 177 14 241 39 13 5 18 -7 28 -70 7 -42
11 -78 9 -79 -10 -9 -112 -37 -168 -46 -327 -51 -571 85 -636 356 -23 92 -23
259 -1 342 49 184 166 311 328 357 68 19 214 14 284 -10z m2474 1 c30 -8 58
-19 63 -24 6 -6 2 -36 -9 -78 -21 -78 -14 -75 -128 -49 -183 43 -337 -28 -394
-181 -32 -84 -38 -209 -17 -307 30 -135 101 -212 226 -243 74 -19 192 -14 263
11 23 8 47 15 53 15 13 0 36 -142 25 -153 -4 -4 -53 -17 -107 -29 -248 -51
-468 19 -575 185 -55 85 -80 171 -86 297 -14 288 119 498 358 565 66 18 248
14 328 -9z m793 13 c131 -27 253 -120 312 -238 87 -170 87 -412 1 -582 -58
-113 -174 -205 -296 -234 -279 -65 -532 98 -589 380 -17 81 -14 237 5 310 70
270 303 419 567 364z m-5312 -824 c81 -42 80 -181 0 -229 -38 -22 -98 -20
-137 4 -109 66 -64 240 62 240 25 0 59 -7 75 -15z m3549 1 c60 -31 82 -116 48
-182 -32 -62 -127 -82 -188 -41 -69 46 -76 142 -14 204 28 28 40 33 79 33 26
0 60 -7 75 -14z"/>
<path d="M1089 4201 c-55 -11 -116 -41 -146 -73 -73 -78 -50 -225 43 -276 70
-38 232 -49 382 -26 l32 5 -2 176 -3 177 -30 8 c-45 13 -223 18 -276 9z"/>
<path d="M2954 4680 c-60 -19 -128 -73 -162 -130 -30 -50 -38 -73 -58 -152
l-6 -28 291 0 291 0 0 45 c0 25 -9 68 -19 95 -44 115 -119 171 -235 176 -39 2
-85 -1 -102 -6z"/>
<path d="M2532 2829 c-63 -32 -119 -101 -142 -177 -11 -35 -20 -68 -20 -73 0
-5 112 -9 256 -9 l257 0 -6 55 c-7 74 -51 151 -105 190 -38 26 -54 30 -120 33
-63 2 -85 -1 -120 -19z"/>
<path d="M5889 2837 c-135 -38 -209 -168 -209 -367 0 -211 81 -340 233 -372
146 -31 275 52 323 207 37 118 25 295 -25 393 -60 117 -194 175 -322 139z"/>
</g>
</svg>
